<svg width="256" height="128" viewBox="0 0 256 128" fill="none" xmlns="http://www.w3.org/2000/svg">
<rect width="256" height="128" fill="white"/>
<mask id="mask0_2940_1807" style="mask-type:alpha" maskUnits="userSpaceOnUse" x="45" y="25" width="159" height="76">
<path d="M47.084 41.0013C52.0425 37.927 64.9264 29.3692 71.3815 27.2282C80.3461 24.2549 80.825 31.6482 80.2815 38.1418C79.796 43.9426 78.63 48.4267 76.9651 53.9622C76.3713 55.9367 75.6723 57.8786 74.9686 59.8166C74.4087 61.3583 73.0154 62.7498 73.1412 64.3851C73.2256 65.4831 74.7578 62.889 75.5438 62.1178C80.1039 57.6435 84.7666 53.3453 89.8922 49.5122C93.7993 46.5904 96.9634 44.4641 101.33 42.3549C105.41 40.3846 111.786 37.7727 116.423 39.8169C119.877 41.3392 121.708 45.3223 122.481 48.6831C124.531 57.6051 123.081 67.5358 120.941 76.2631C119.592 81.7628 118.262 85.2698 116.017 90.2731C115.173 92.155 112.278 97.3724 112.43 95.3153C112.607 92.9228 114.722 87.7747 115.442 86.3138C120.279 76.4987 126.896 67.8069 134.934 60.3919C144.181 51.8624 155.834 44.7304 168.368 42.4565C168.931 42.3543 172.992 41.8629 173.952 42.1857C177.049 43.2272 176.909 49.6771 176.981 51.678C177.381 62.86 174.405 73.2474 170.737 83.6742C169.551 87.0452 169.825 86.125 168.876 88.9195C168.798 89.1492 168.69 89.3731 168.656 89.6132C168.51 90.6349 169.484 87.7209 169.959 86.8044C173.969 79.0625 178.732 70.6482 185.119 64.5882C186.689 63.0995 188.919 61.8519 191.16 62.1009C194.953 62.5223 197.425 67.9945 198.656 70.9163C202.348 79.6847 202.599 89.2263 202.107 98.564" stroke="black" stroke-width="3" stroke-linecap="round"/>
</mask>
<g mask="url(#mask0_2940_1807)">
<path d="M128 32L0 32V96H128V128L256 64L128 0V32Z" fill="#D9D9D9"/>
</g>
</svg>
